<?xml version="1.0" encoding="utf-8"?>
<!-- Generator: Adobe Illustrator 24.2.0, SVG Export Plug-In . SVG Version: 6.00 Build 0)  -->
<svg version="1.1" id="Camada_1" xmlns="http://www.w3.org/2000/svg" xmlns:xlink="http://www.w3.org/1999/xlink" x="0px" y="0px"
	 viewBox="0 0 2500 1886.1" style="enable-background:new 0 0 2500 1886.1;" xml:space="preserve">
<style type="text/css">
	.st0{fill:#8A05BE;}
</style>
<path class="st0" d="M2420,1331.8c0,77.8-92.8,173.4-168.3,173.4H2183c0.1-476.2,0.1-1010,0-1104.7c-0.1-11.8,9.3-21.4,21.1-21.6
	c0,0,0,0,0.1,0h194.7c11.7,0,21.3,9.8,21.3,21.7L2420,1331.8L2420,1331.8z M2102.8,1672.3c0,49.3-24.1,131.8-185.5,131.8
	c-312.8,0-504.9-245.1-504.9-420.9c0,0-0.3-568.4-0.3-982.5c-0.1-11.8,9.3-21.4,21.1-21.6h0.1h194.9c11.7,0,21.3,9.7,21.3,21.7V1314
	c0,150.9,119.4,273.3,266.6,273.3h186.8L2102.8,1672.3z M2413.5,297h-224.2c-47.7,0-86.5,39.8-86.5,88.7v1119.6H1916
	c-103.1,0-186.6-85.6-186.6-191.3V385.7c0-49-38.8-88.7-86.5-88.7h-224.3c-47.8,0-86.5,39.7-86.6,88.7
	c-0.1,404.8,0.3,997.5,0.3,997.5c0,311.5,340.7,502.9,585,502.9c163.8,0,265.6-82.1,265.6-214.3v-84.4h68.8
	c120.7,0,248.4-131.3,248.4-255.6V385.7C2500.1,336.7,2461.4,297,2413.5,297L2413.5,297L2413.5,297z M1088.2,1485.4
	c0.1,11.8-9.3,21.4-21.1,21.5h-0.1H872.1c-11.9,0-21.4-9.8-21.3-21.7V572c0-150.9-119.5-273.3-266.6-273.3H397.3v-85
	c0-49.1,24.1-131.8,185.5-131.8c312.8,0,504.9,245.1,504.9,420.9C1087.8,502.9,1088.2,1074,1088.2,1485.4L1088.2,1485.4
	L1088.2,1485.4z M101.3,1507.1c-11.9-0.3-21.3-9.9-21.2-21.8v-931c0-77.8,92.8-173.6,168.3-173.6h68.8
	c-0.1,681.9-0.1,1030.8,0,1104.5c0.1,11.9-9.4,21.6-21.2,21.7L101.3,1507.1L101.3,1507.1z M1167.8,502.9
	C1167.8,191.3,827.1,0,582.9,0C419,0,317.2,82.1,317.2,214.3v84.4h-68.8C127.7,298.7,0,430.1,0,554.3v946.1
	c0,49,38.8,88.7,86.5,88.7h224.2c1.4,0,2.6-0.4,4-0.4c45.8-2.2,82.5-40.8,82.5-88.3V380.7h186.9c103,0,186.6,85.6,186.6,191.3v928.4
	c0,49,38.8,88.7,86.5,88.7h224.4c47.8,0,86.5-39.6,86.5-88.7C1168.3,1088,1167.8,502.9,1167.8,502.9L1167.8,502.9z"/>
</svg>
