<svg xmlns="http://www.w3.org/2000/svg" width="20" height="20" fill="none" viewBox="0 0 21 20" class="SVGWrapper-c62y5b-0 dByUxt" color="#fff">
  <g fill="#111">
    <path d="M10.5 7a3 3 0 100 6 3 3 0 000-6z"/>
    <path fill-rule="evenodd" clip-rule="evenodd" d="M.936 2.184C.5 3.04.5 4.16.5 6.4v7.2c0 2.24 0 3.36.436 4.216a4 4 0 001.748 1.748C3.54 20 4.66 20 6.9 20h7.2c2.24 0 3.36 0 4.216-.436a4 4 0 001.748-1.748c.436-.856.436-1.976.436-4.216V6.4c0-2.24 0-3.36-.436-4.216A4 4 0 0018.316.436C17.46 0 16.34 0 14.1 0H6.9C4.66 0 3.54 0 2.684.436A4 4 0 00.936 2.184zm15.606 2.9a1.042 1.042 0 100-2.084 1.042 1.042 0 000 2.083zM5.5 10a5 5 0 1110 0 5 5 0 01-10 0z"/>
  </g>
</svg>
