<svg width="151" height="56" fill="none" xmlns="http://www.w3.org/2000/svg">
  <path fill="#000" d="M0 0h151v56H0z"/>
  <path d="M50.68 14.95V22h2.37c2.1 0 3.33-1.3 3.33-3.53 0-2.21-1.24-3.52-3.33-3.52h-2.37zm.88.8H53c1.6 0 2.49.97 2.49 2.73 0 1.75-.89 2.73-2.49 2.73h-1.43v-5.46zM57.88 22h.85v-5.08h-.85V22zm.43-5.98c.3 0 .53-.24.53-.53a.53.53 0 10-1.06 0c0 .29.23.53.53.53zm1.98 2.3c0 .74.47 1.18 1.42 1.41l.8.2c.59.14.79.35.79.71 0 .46-.42.75-1.11.75-.7 0-1.08-.27-1.19-.85h-.84c.1.95.84 1.55 2.03 1.55 1.13 0 1.96-.63 1.96-1.51 0-.73-.37-1.13-1.4-1.38l-.8-.2c-.56-.13-.82-.37-.82-.72 0-.45.4-.75 1.03-.75.62 0 1.01.32 1.08.86h.8c-.03-.9-.77-1.56-1.88-1.56-1.1 0-1.87.62-1.87 1.5zM68 16.83c-.73 0-1.32.38-1.64.95h-.02v-.86h-.8v6.77h.85v-2.52h.02c.3.56.89.92 1.61.92 1.28 0 2.16-1.04 2.16-2.63 0-1.6-.88-2.63-2.18-2.63zm-.16 4.51c-.87 0-1.46-.75-1.46-1.88s.59-1.88 1.46-1.88c.9 0 1.47.73 1.47 1.88s-.57 1.88-1.47 1.88zm5.8.75c1.4 0 2.35-1.01 2.35-2.63 0-1.62-.95-2.63-2.35-2.63-1.4 0-2.35 1.01-2.35 2.63 0 1.62.94 2.63 2.35 2.63zm0-.75c-.9 0-1.49-.68-1.49-1.88 0-1.2.6-1.88 1.5-1.88.89 0 1.47.68 1.47 1.88 0 1.2-.58 1.88-1.48 1.88zm3.7.66h.86v-2.99c0-.86.52-1.42 1.32-1.42.78 0 1.17.45 1.17 1.27V22h.85v-3.3c0-1.15-.65-1.87-1.76-1.87-.79 0-1.33.36-1.61.9h-.02v-.8h-.8V22zm5.83 0h.85v-5.08h-.85V22zm.76-5.81l1.14-1.47h-.93l-.87 1.47h.66zm5.9.73h-.89l-1.4 4.18h-.02l-1.4-4.18h-.9L87.1 22h.87l1.87-5.08zm3.06.65c.8 0 1.33.6 1.35 1.46h-2.76c.05-.85.61-1.46 1.4-1.46zm1.33 2.97c-.14.48-.62.81-1.26.81-.91 0-1.48-.64-1.48-1.61v-.05h3.64v-.32c0-1.54-.85-2.54-2.22-2.54-1.4 0-2.3 1.07-2.3 2.65 0 1.6.89 2.6 2.34 2.6 1.1 0 1.97-.65 2.11-1.54h-.83zm2.3 1.46h.85v-7.05h-.85V22zm5.05 0h.85v-2.99c0-.86.52-1.42 1.32-1.42.78 0 1.17.45 1.17 1.27V22h.85v-3.3c0-1.15-.65-1.87-1.76-1.87-.78 0-1.33.36-1.61.9h-.02v-.8h-.8V22zm7.45-.63c-.61 0-1.02-.32-1.02-.8 0-.48.4-.79 1.08-.83l1.35-.08v.41c0 .73-.61 1.3-1.41 1.3zm-.2.72c.7 0 1.34-.38 1.64-.96h.02V22h.8v-3.51c0-1.01-.75-1.66-1.94-1.66-1.2 0-1.95.68-2.01 1.56h.82c.1-.5.52-.8 1.17-.8.7 0 1.11.36 1.11.98V19l-1.45.08c-1.17.07-1.84.62-1.84 1.48 0 .92.68 1.53 1.69 1.53z" fill="#F5F5F5"/>
  <path fill-rule="evenodd" clip-rule="evenodd" d="M35.62 14.22a5.48 5.48 0 01-1.32 4 4.92 4.92 0 01-3.83 1.76 5.22 5.22 0 011.35-3.86 5.95 5.95 0 013.8-1.9zm4.71 8.53c-.16.09-2.82 1.63-2.79 4.76A5.52 5.52 0 0041 32.56c-.02.1-.53 1.8-1.8 3.55-1.06 1.54-2.17 3.04-3.94 3.07-.83.02-1.4-.22-2-.46a5.37 5.37 0 00-4.63.02c-.56.22-1.1.45-1.86.48-1.68.06-2.97-1.64-4.07-3.17-2.2-3.1-3.9-8.75-1.61-12.6a6.33 6.33 0 015.3-3.13 7.1 7.1 0 012.67.65c.61.24 1.16.45 1.6.45.4 0 .93-.2 1.55-.44.98-.38 2.17-.84 3.4-.71.83.02 3.2.32 4.72 2.48zm54.26 15.49c.79-.7 1.18-1.6 1.18-2.7 0-.9-.27-1.65-.8-2.25a6.6 6.6 0 00-2.54-1.58 6.99 6.99 0 01-1.94-1c-.41-.34-.62-.76-.62-1.28 0-.46.18-.85.54-1.17.42-.36 1-.54 1.76-.54.95 0 1.8.2 2.56.6l.53-1.7a6.63 6.63 0 00-3.03-.62c-1.36 0-2.45.34-3.27 1.02a3.26 3.26 0 00-1.23 2.63c0 1.63 1.17 2.88 3.5 3.72.87.31 1.48.65 1.85 1 .37.37.55.81.55 1.34 0 .6-.22 1.07-.67 1.42-.45.35-1.07.53-1.88.53a5.98 5.98 0 01-3.1-.83l-.49 1.74c.87.54 2.03.8 3.46.8 1.56 0 2.77-.37 3.64-1.13zm-35.6.94h2.28L56.95 26.2H54.3l-4.3 13h2.22l1.19-3.82h4.33l1.26 3.8zm-2.75-8.8l1.13 3.39h-3.59l1.11-3.4c.3-1.08.5-1.9.64-2.44h.04c.33 1.28.55 2.1.67 2.44zM71 38.15a5.24 5.24 0 001.32-3.78c0-1.42-.38-2.57-1.14-3.45a3.61 3.61 0 00-2.84-1.3c-1.45 0-2.53.55-3.25 1.67h-.04l-.12-1.49h-1.88c.05 1.06.08 2.09.08 3.09V43h2.14v-4.94h.04c.56.9 1.47 1.33 2.73 1.33 1.18 0 2.16-.4 2.96-1.23zm-1.5-5.95c.42.6.63 1.35.63 2.26a3.9 3.9 0 01-.67 2.39c-.45.6-1.08.9-1.88.9-.69 0-1.24-.23-1.67-.7a2.46 2.46 0 01-.65-1.72v-1.57c0-.16.03-.37.1-.63a2.36 2.36 0 012.28-1.85c.78 0 1.4.3 1.86.92zm13.88 2.18c0 1.6-.44 2.86-1.32 3.78a3.93 3.93 0 01-2.95 1.23c-1.27 0-2.18-.44-2.74-1.33h-.04V43H74.2V32.9c0-1-.02-2.03-.07-3.09H76l.12 1.49h.04a3.59 3.59 0 013.24-1.68c1.14 0 2.09.44 2.85 1.31a5.09 5.09 0 011.13 3.45zm-2.17.08c0-.91-.22-1.66-.64-2.26a2.2 2.2 0 00-1.86-.92 2.36 2.36 0 00-2.28 1.85c-.06.26-.1.47-.1.63v1.57c0 .68.22 1.25.65 1.72.42.47.98.7 1.67.7.8 0 1.43-.3 1.88-.9.45-.6.68-1.4.68-2.39zm21.63-3.08h-2.36v4.55c0 1.15.41 1.73 1.25 1.73.38 0 .7-.03.95-.1l.06 1.58c-.43.16-.98.23-1.67.23a2.6 2.6 0 01-1.98-.75c-.47-.5-.71-1.34-.71-2.52v-4.73h-1.4v-1.56h1.4V28.1l2.1-.62v2.33h2.36v1.57zm9.37 6.59a5.06 5.06 0 001.26-3.55c0-1.4-.4-2.54-1.23-3.43-.86-.91-2-1.37-3.4-1.37-1.47 0-2.64.47-3.5 1.4a5 5 0 00-1.3 3.56 4.9 4.9 0 001.26 3.45 4.36 4.36 0 003.38 1.36c1.46 0 2.64-.47 3.53-1.42zm-1.53-5.7c.38.61.57 1.35.57 2.22 0 .86-.2 1.61-.59 2.24a2.15 2.15 0 01-1.92 1.14c-.83 0-1.48-.37-1.94-1.12a4.12 4.12 0 01-.58-2.22c0-.9.2-1.65.58-2.26a2.16 2.16 0 011.96-1.12c.83 0 1.47.37 1.92 1.12zm9.75-.63a3.82 3.82 0 00-.68-.05c-.75 0-1.33.27-1.74.83-.36.49-.54 1.1-.54 1.85v4.91h-2.14l.02-6.42c0-1.07-.02-2.06-.08-2.94h1.87l.08 1.79h.05c.23-.62.59-1.11 1.07-1.49.48-.33 1-.5 1.55-.5.2 0 .38.02.53.04v1.98zm9.48 3.36c.06-.26.08-.57.08-.94 0-1.17-.28-2.16-.85-2.95-.71-1-1.76-1.5-3.15-1.5-1.41 0-2.53.5-3.36 1.5a5.27 5.27 0 00-1.2 3.52c0 1.44.43 2.59 1.28 3.44a4.75 4.75 0 003.52 1.29c1.24 0 2.32-.2 3.23-.58l-.34-1.45c-.78.3-1.64.45-2.6.45-.85 0-1.55-.22-2.1-.66-.59-.49-.9-1.2-.93-2.12h6.42zm-2.37-3.08c.28.45.42.98.41 1.6h-4.45c.06-.63.27-1.17.63-1.62.43-.57 1-.85 1.7-.85.77 0 1.33.29 1.7.87z" fill="#F5F5F5"/>
</svg>
