<svg xmlns="http://www.w3.org/2000/svg" viewBox="0 0 2500 1886.1">
  <path d="M2420 1331.8c0 77.8-92.8 173.4-168.3 173.4H2183c.1-476.2.1-1010 0-1104.7-.1-11.8 9.3-21.4 21.1-21.6H2398.9c11.7 0 21.3 9.8 21.3 21.7l-.2 931.2zm-317.2 340.5c0 49.3-24.1 131.8-185.5 131.8-312.8 0-504.9-245.1-504.9-420.9 0 0-.3-568.4-.3-982.5-.1-11.8 9.3-21.4 21.1-21.6h195c11.7 0 21.3 9.7 21.3 21.7V1314c0 150.9 119.4 273.3 266.6 273.3h186.8l-.1 85zM2413.5 297h-224.2c-47.7 0-86.5 39.8-86.5 88.7v1119.6H1916c-103.1 0-186.6-85.6-186.6-191.3V385.7c0-49-38.8-88.7-86.5-88.7h-224.3c-47.8 0-86.5 39.7-86.6 88.7-.1 404.8.3 997.5.3 997.5 0 311.5 340.7 502.9 585 502.9 163.8 0 265.6-82.1 265.6-214.3v-84.4h68.8c120.7 0 248.4-131.3 248.4-255.6V385.7c0-49-38.7-88.7-86.6-88.7zM1088.2 1485.4c.1 11.8-9.3 21.4-21.1 21.5h-195c-11.9 0-21.4-9.8-21.3-21.7V572c0-150.9-119.5-273.3-266.6-273.3H397.3v-85c0-49.1 24.1-131.8 185.5-131.8 312.8 0 504.9 245.1 504.9 420.9.1.1.5 571.2.5 982.6zm-986.9 21.7c-11.9-.3-21.3-9.9-21.2-21.8v-931c0-77.8 92.8-173.6 168.3-173.6h68.8c-.1 681.9-.1 1030.8 0 1104.5.1 11.9-9.4 21.6-21.2 21.7l-194.7.2zM1167.8 502.9C1167.8 191.3 827.1 0 582.9 0 419 0 317.2 82.1 317.2 214.3v84.4h-68.8C127.7 298.7 0 430.1 0 554.3v946.1c0 49 38.8 88.7 86.5 88.7h224.2c1.4 0 2.6-.4 4-.4 45.8-2.2 82.5-40.8 82.5-88.3V380.7h186.9c103 0 186.6 85.6 186.6 191.3v928.4c0 49 38.8 88.7 86.5 88.7h224.4c47.8 0 86.5-39.6 86.5-88.7.2-412.4-.3-997.5-.3-997.5z" fill="#8a05be"/>
</svg>
