<svg xmlns="http://www.w3.org/2000/svg" width="20" height="20" fill="none" viewBox="0 0 21 20" class="SVGWrapper-c62y5b-0 dByUxt" color="#fff">
  <path fill-rule="evenodd" clip-rule="evenodd" d="M.5 6.4c0-2.24 0-3.36.436-4.216A4 4 0 012.684.436C3.54 0 4.66 0 6.9 0h7.2c2.24 0 3.36 0 4.216.436a4 4 0 011.748 1.748c.436.856.436 1.976.436 4.216v7.2c0 2.24 0 3.36-.436 4.216a4 4 0 01-1.748 1.748C17.46 20 16.34 20 14.1 20H6.9c-2.24 0-3.36 0-4.216-.436a4 4 0 01-1.748-1.748C.5 16.96.5 15.84.5 13.6V6.4zm15.174 1.202c0 3.665-2.685 7.898-7.59 7.898A7.373 7.373 0 014 14.26a5.22 5.22 0 003.948-1.153c-1.165-.021-2.153-.823-2.491-1.927.16.033.327.049.499.049.244 0 .479-.033.702-.098-1.217-.254-2.138-1.38-2.138-2.723v-.037c.36.205.77.33 1.207.346a2.815 2.815 0 01-1.186-2.311c0-.51.13-.986.359-1.397 1.316 1.678 3.282 2.788 5.499 2.901a3.181 3.181 0 01-.068-.633C10.33 5.745 11.527 4.5 13 4.5c.764 0 1.456.336 1.945.877a5.183 5.183 0 001.696-.671 2.776 2.776 0 01-1.176 1.537A5.243 5.243 0 0017 5.805a5.562 5.562 0 01-1.332 1.44c.006.119.006.238.006.357z" fill="#111"/>
</svg>
